<svg id="Capa_1" enable-background="new 0 0 496.335 496.335" height="512" viewBox="0 0 496.335 496.335" width="512" xmlns="http://www.w3.org/2000/svg"><circle cx="252.285" cy="246.635" fill="#fe646f" r="202.437"/><circle cx="252.285" cy="246.635" fill="#ebebeb" r="129.556"/><path d="m266.137 196.094c-.541 0-1.09-.06-1.64-.182-4.042-.901-6.589-4.91-5.688-8.953l27.408-122.904c2.847-13.355-3.866-26.738-16.337-32.476-7.221-3.319-15.278-3.571-22.691-.704-7.369 2.852-13.137 8.41-16.255 15.663l-8.161 21.552c-1.467 3.874-5.794 5.823-9.67 4.357-3.873-1.467-5.824-5.796-4.357-9.67l8.216-21.697c.034-.092.071-.184.11-.274 4.703-11.081 13.478-19.576 24.705-23.92 11.229-4.344 23.437-3.964 34.371 1.066 18.892 8.689 29.059 28.962 24.725 49.299l-27.423 122.974c-.779 3.493-3.878 5.869-7.313 5.869z" fill="#f4d902"/><path d="m91.511 268.257c-16.994.002-32.616-9.733-39.962-25.705-5.031-10.937-5.41-23.144-1.066-34.371s12.839-20.002 23.92-24.705c.076-.032.152-.063.229-.093l18.091-6.985c3.863-1.496 8.206.431 9.697 4.295 1.492 3.863-.431 8.206-4.295 9.697l-17.969 6.938c-7.264 3.116-12.831 8.889-15.685 16.265-2.867 7.412-2.617 15.471.704 22.691 5.737 12.471 19.123 19.179 32.546 16.322l119.064-26.799c4.041-.903 8.054 1.63 8.964 5.671.909 4.041-1.63 8.054-5.671 8.964l-119.147 26.816c-3.157.674-6.313.999-9.42.999z" fill="#f4d902"/><path d="m440.575 331.055-53.82-30.15-14.041-11.635-53.322 52.29 14.963 11.535 30.23 53.95 7.613 7.613 77.209-77.209z" fill="#fee903"/><path d="m293.375 207.445c-8.94-8.93-14.26-20.85-14.95-33.47l-1.04-18.94c-.17-3.21-.46-6.4-.84-9.57-3.88-31.77-18.27-61.43-41.03-84.19l-13.33-13.33-29.3-26.542-140.244 138.274 28.904 28.918 13.32 13.32c22.76 22.76 52.43 37.15 84.19 41.03 3.17.39 6.36.67 9.57.85l18.95 1.03c9.54.53 18.67 3.7 26.42 9.07 2.51 1.74 4.87 3.7 7.05 5.88l1.87 1.88c6.64 6.63 17.4 6.63 24.04 0l40.31-40.31z" fill="#fee903"/><path d="m404.069 382.787-7.613-7.613-30.23-53.95-14.61-11.264-32.224 31.6 14.963 11.535 30.23 53.95 7.613 7.613 77.209-77.209z" fill="#fed402"/><path d="m303.707 224.903c-6.64 6.63-17.4 6.63-24.04 0l-1.87-1.88c-2.18-2.18-4.54-4.14-7.05-5.88-7.75-5.37-16.88-8.54-26.42-9.07l-18.95-1.03c-3.21-.18-6.4-.46-9.57-.85-31.76-3.88-61.43-18.27-84.19-41.03l-13.32-13.32-28.644-28.658-37.012 36.492 28.904 28.918 13.32 13.32c22.76 22.76 52.43 37.15 84.19 41.03 3.17.39 6.36.67 9.57.85l18.95 1.03c9.54.53 18.67 3.7 26.42 9.07 2.51 1.74 4.87 3.7 7.05 5.88l1.87 1.88c6.64 6.63 17.4 6.63 24.04 0l40.31-40.31z" fill="#fed402"/><path d="m121.925 57.575-11.93 7.41c-4.63 2.88-8.54 6.78-11.41 11.41l-7.46 12c-6.9-.39-13.68-3.22-18.95-8.49-11.39-11.39-11.39-29.86 0-41.26 11.4-11.39 29.87-11.39 41.26 0 5.27 5.27 8.09 12.04 8.49 18.93z" fill="#fee903"/><path d="m208.275 8.925c3.43 3.43 3.43 8.98 0 12.41l-6.35 6.35-44.55 44.55-51.55 51.55-44.54 44.54-6.35 6.35c-3.43 3.43-8.99 3.43-12.41 0l-7.11-7.1c-2.42-2.42-2.42-6.34 0-8.76l31.58-31.58 24.13-38.84 7.46-12c2.87-4.63 6.78-8.53 11.41-11.41l11.93-7.41 38.91-24.18 31.57-31.58c2.42-2.42 6.35-2.42 8.77 0z" fill="#f4d902"/><path d="m203.444 4.087-18.33 18.33-51.55 51.55-44.54 44.54-6.35 6.35c-3.43 3.43-8.99 3.43-12.41 0l-1.105-1.104-2.163 3.482-31.58 31.58c-2.42 2.42-2.42 6.34 0 8.76l7.11 7.1c3.42 3.43 8.98 3.43 12.41 0l6.35-6.35 44.54-44.54 51.55-51.55 44.55-44.55 6.35-6.35c3.43-3.43 3.43-8.98 0-12.41z" fill="#fac600"/><path d="m386.825 280.945c-5.49-5.49-14.39-5.49-19.88 0 2.74-2.75 4.12-6.34 4.12-9.94s-1.38-7.19-4.12-9.94c-5.49-5.49-14.39-5.49-19.88 0 2.74-2.75 4.12-6.34 4.12-9.94s-1.38-7.19-4.12-9.94c-5.49-5.49-14.39-5.49-19.88 0 5.49-5.49 5.49-14.39 0-19.88-2.74-2.75-6.34-4.12-9.94-4.12s-7.2 1.37-9.94 4.12l-40.35 40.35c-6.64 6.63-17.4 6.63-24.04 0l-1.87-1.88c-2.18-2.18-4.54-4.14-7.05-5.88l-6.61 19.25c-2.84 9.03-.77 18.88 5.46 26.01l7.69 8.79-73.688 73.699 53.154 52.466 79.334-79.334v-.01c13.03 6.48 29.27 4.28 40.12-6.57l23.8-23.8 23.57-23.56c2.74-2.74 4.12-6.34 4.12-9.94 0-3.601-1.38-7.201-4.12-9.951z" fill="#fed2a4"/><path d="m176.248 390.923 73.627-73.638-7.69-8.79c-6.23-7.13-8.3-16.98-5.46-26.01l6.61-19.25c2.51 1.74 4.87 3.7 7.05 5.88l1.87 1.88c6.64 6.63 17.4 6.63 24.04 0l40.35-40.35c2.74-2.75 6.34-4.12 9.94-4.12 1.384 0 2.767.207 4.102.613-.65-2.134-1.814-4.145-3.502-5.832-2.74-2.75-6.34-4.12-9.94-4.12s-7.2 1.37-9.94 4.12l-40.35 40.35c-6.64 6.63-17.4 6.63-24.04 0l-1.87-1.88c-2.18-2.18-4.54-4.14-7.05-5.88l-6.61 19.25c-2.84 9.03-.77 18.88 5.46 26.01l7.69 8.79-73.688 73.699z" fill="#ffbd86"/><path d="m458.975 330.795c2.51 2.5 3.76 5.79 3.76 9.07s-1.25 6.57-3.76 9.07l-77.89 77.89c-5.01 5.01-13.13 5.01-18.14 0-2.5-2.51-3.76-5.79-3.76-9.07s1.26-6.56 3.76-9.06l1.64-1.65 75.99-75.99.26-.26c5.01-5.01 13.13-5.01 18.14 0z" fill="#f4d902"/><path d="m395.259 394.511c-2.5-2.51-3.76-5.79-3.76-9.07s1.26-6.56 3.76-9.06l1.64-1.65-32.313 32.313-1.64 1.65c-2.5 2.5-3.76 5.78-3.76 9.06s1.26 6.56 3.76 9.07c5.01 5.01 13.13 5.01 18.14 0l32.313-32.313c-5.01 5.01-13.13 5.01-18.14 0z" fill="#fac600"/><path d="m280.745 381.555c3.01 3.01 3.01 7.89 0 10.9l-18.6 18.59c-3 3.01-7.88 3.01-10.89 0l-4.09-4.09-52.81-52.81-4.1-4.1c-3.01-3.01-3.01-7.89 0-10.9l18.59-18.59c3.01-3.01 7.89-3.01 10.9 0l4.09 4.09v.01l52.81 52.81h.01z" fill="#00f2a6"/><path d="m224.791 361.96c-5.274-5.274-5.274-13.826 0-19.1l8.625-8.625-9.581-9.581v-.01l-4.09-4.09c-3.01-3.01-7.89-3.01-10.9 0l-18.59 18.59c-3.01 3.01-3.01 7.89 0 10.9l4.1 4.1 52.81 52.81 4.09 4.09c3.01 3.01 7.89 3.01 10.89 0l5.867-5.864z" fill="#05e39c"/><path d="m226.935 430.775c4.28 4.27 4.28 11.21 0 15.49l-46.04 46.04c-2.581 2.581-6.081 4.03-9.73 4.03h-127.981c-3.73 0-5.599-4.51-2.961-7.148l114.812-114.822c4.28-4.28 11.22-4.28 15.49 0l1.8 1.8 52.81 52.81z" fill="#08a9f1"/><path d="m181.007 400.337c4.28-4.28 11.22-4.28 15.49 0l-24.172-24.172-1.8-1.8c-4.27-4.28-11.21-4.28-15.49 0l-114.812 114.822c-2.638 2.638-.769 7.148 2.961 7.148h41.834z" fill="#0290cf"/><g fill="#6bd9e7"><path d="m386.347 79.906c-4.011 5.854-8.851 10.801-14.602 14.751-2.886 1.982-2.896 6.196.008 8.151 5.958 4.01 10.888 8.735 14.649 14.272 1.935 2.848 6.16 2.931 8.075.07 3.87-5.782 8.767-10.664 14.742-14.601 2.881-1.898 2.841-6.107.016-8.088-5.768-4.045-10.799-8.848-14.842-14.667-1.952-2.811-6.112-2.711-8.046.112z"/><path d="m147.783 149.063c-4.998 8.226-11.453 14.857-19.562 19.68-1.607.956-1.617 3.312-.013 4.274 8.453 5.068 15.093 11.397 19.583 19.219.961 1.675 3.367 1.708 4.336.037 4.681-8.068 11.152-14.566 19.536-19.387 1.623-.933 1.679-3.274.095-4.273-7.995-5.044-14.762-11.352-19.712-19.529-.965-1.594-3.295-1.615-4.263-.021z"/></g></svg>