<svg id="Capa_1" enable-background="new 0 0 512 512" height="512" viewBox="0 0 512 512" width="512" xmlns="http://www.w3.org/2000/svg"><g><g><g><path d="m217.934 489.698h-105.734c-5.69 0-10.302-4.612-10.302-10.302v-128.52h126.338v128.52c0 5.689-4.612 10.302-10.302 10.302z" fill="#ffcec0"/></g><g><path d="m399.8 489.698h-105.734c-5.69 0-10.302-4.612-10.302-10.302v-128.52h126.338v128.52c0 5.689-4.612 10.302-10.302 10.302z" fill="#ffcec0"/></g></g><g><g><g><path d="m80.235 267.804v-124.655c0-13.996-11.346-25.342-25.342-25.342-13.996 0-25.342 11.346-25.342 25.342v124.654h50.684z" fill="#ea806f"/></g><g><path d="m63.923 267.804v-86.528c0-13.996-11.346-25.342-25.342-25.342-13.996 0-25.342 11.346-25.342 25.342v86.528z" fill="#fdb0a0"/><path d="m63.923 181.28v86.525h-33.677v-86.525c0-7.531-3.286-14.299-8.499-18.935 4.471-3.987 10.374-6.408 16.833-6.408 14 0 25.343 11.343 25.343 25.343z" fill="#f69583"/></g><g><path d="m482.449 267.804v-124.655c0-13.996-11.346-25.342-25.342-25.342s-25.342 11.346-25.342 25.342v124.654h50.684z" fill="#ea806f"/></g><g><path d="m498.76 267.804v-86.528c0-13.996-11.346-25.342-25.342-25.342s-25.342 11.346-25.342 25.342v86.528z" fill="#fdb0a0"/><path d="m498.762 181.28v86.525h-25.342v-86.525c0-9.385-5.099-17.575-12.671-21.943 3.729-2.163 8.056-3.4 12.671-3.4 13.99 0 25.342 11.343 25.342 25.343z" fill="#f69583"/></g><g><path d="m396.754 214.247-18.399 64.108c-1.391 4.79-4.708 8.808-9.117 11.064l-80.653 41.321c-.927.474-1.473 1.453-1.391 2.483l2.565 34.418c.093 1.216 1.03 2.205 2.225 2.359l22.87 3.018c2.205.288 4.316.979 6.274 2.05l56.66 30.926c-34.408 24.344-76.429 38.642-121.788 38.642-51.787 0-99.237-18.646-135.963-49.603l56.351-98.918c.227-.391.34-.834.34-1.277v-27.866c0-.989-.536-1.617-.845-1.906-.319-.288-.999-.752-1.988-.659l-24.92 2.503c-2.524.258-5.027-.021-7.448-.814l-30.514-10.065c-7.675-2.534-12.754-9.941-12.352-18.018l1.113-22.376c.309-6.191 3.709-11.713 9.097-14.773l27.166-15.442c.917-.525 1.432-1.586 1.267-2.637l-2.4-15.453c-.124-.845-.67-1.566-1.442-1.937l-64.386-30.256c27.743-52.632 77.068-92.119 136.2-106.696l14.031 38.395c.288.793.968 1.401 1.793 1.607l33.316 8.272c.556.134 1.154.082 1.679-.154l24.086-10.817c4.152-1.865 8.808-2.091 13.114-.649l28.237 9.467c9.303 3.121 14.361 12.918 11.528 22.314l-17.843 58.937c-1.813 5.975-6.49 10.518-12.496 12.166l-33.635 9.21c-.845.237-1.504.876-1.772 1.71l-8.138 25.332c-.216.68-.155 1.391.175 2.019l22.375 41.908c.587 1.102 1.885 1.628 3.08 1.226l35.387-11.662c.917-.309 1.586-1.092 1.741-2.05l7.479-46.142c1.339-8.344 8.448-14.711 16.905-15.123l21.242-1.04c.299-.021.598-.021.896-.021 6.243 0 12.063 3.235 15.36 8.592l10.982 17.925c2.625 4.286 3.346 9.53 1.956 14.382z" fill="#31a7fb"/><path d="m184.454 266.974v27.865c0 1.788-.465 3.545-1.35 5.099l-56.979 100.04c-49.48-38.642-81.292-98.856-81.292-166.508 0-38.292 10.188-74.194 28-105.151l63.915 30.088c3.097 1.458 5.267 4.359 5.792 7.741l2.398 15.454c.656 4.228-1.37 8.421-5.089 10.536l-27.164 15.44c-3.063 1.741-5.024 4.926-5.199 8.445l-1.112 22.374c-.23 4.63 2.66 8.843 7.062 10.295l30.514 10.064c1.37.452 2.819.611 4.255.467l24.919-2.499c6.066-.609 11.33 4.154 11.33 10.25z" fill="#27e19d"/><path d="m377.788 405.994c-34.408 24.344-76.429 38.642-121.788 38.642-23.066 0-45.276-3.698-66.055-10.549 6.985.701 14.062 1.061 21.222 1.061 50.53 0 96.919-17.75 133.264-47.357z" fill="#1c96f9"/><path d="m467.167 233.469c0 74.348-38.426 139.723-96.497 177.346l-53.25-28.969c-1.113-.608-2.318-.999-3.575-1.164l-22.87-3.018c-4.832-.639-8.561-4.584-8.921-9.447l-2.565-34.418c-.309-4.131 1.896-8.046 5.573-9.931l80.653-41.321c2.534-1.298 4.419-3.595 5.213-6.325l18.399-64.098c.793-2.771.391-5.759-1.123-8.221l-10.971-17.915c-1.968-3.204-5.532-5.089-9.292-4.904l-21.242 1.04c-4.862.237-8.89 3.832-9.663 8.643l-7.479 46.152c-.618 3.801-3.286 6.933-6.943 8.138l-35.397 11.672c-4.759 1.566-9.952-.515-12.311-4.935l-22.375-41.918c-1.308-2.462-1.566-5.347-.711-8.005l8.138-25.342c1.071-3.317 3.729-5.872 7.088-6.789l33.635-9.21c3.42-.937 6.109-3.564 7.139-6.954l17.843-58.937c1.607-5.326-1.308-10.982-6.583-12.754l-28.237-9.467c-2.462-.824-5.13-.69-7.5.371l-24.096 10.827c-2.102.937-4.461 1.154-6.696.598l-33.306-8.272c-3.327-.824-6.016-3.245-7.201-6.459l-14.278-39.044c18.492-5.305 38.034-8.138 58.236-8.138 116.625.001 211.165 94.551 211.165 211.168z" fill="#27e19d"/><path d="m467.167 233.469c0 74.348-38.426 139.723-96.497 177.346l-32.832-17.863c51.313-38.529 84.495-99.876 84.495-168.97 0-93.551-60.832-172.885-145.101-200.617 106.655 10.64 189.935 100.657 189.935 210.104z" fill="#26d192"/></g><g><g><g><path d="m74.779 337.721c-3.561-.516-6.405-3.228-7.091-6.76l-13.572-69.952c-3.176-16.423-20.234-26.2-36.042-20.57-12.849 4.577-20.156 18.174-17.55 31.563l15.055 77.343 6.908 35.488c10.312 52.975 61.616 87.559 114.59 77.247l8.564-1.667c11.756-2.288 19.431-13.674 17.143-25.43l-3.206-16.47c-8.217-42.219-42.232-74.626-84.799-80.792z" fill="#ffdfd0"/></g><g><path d="m145.642 460.411-5.486 1.068-6.099-31.359c-8.221-42.217-42.237-74.626-84.805-80.787-3.56-.518-6.403-3.23-7.089-6.762l-13.577-69.955c-2.339-12.136-12.28-20.645-23.684-21.984 3.132-4.574 7.634-8.221 13.166-10.189 15.813-5.635 32.873 4.141 36.046 20.562l13.577 69.955c.685 3.532 3.529 6.244 7.089 6.762 42.567 6.161 76.584 38.57 84.794 80.787l3.208 16.468c2.292 11.758-5.383 23.145-17.14 25.434z" fill="#ffcec0"/></g></g></g><g><g><g><path d="m437.221 337.721c3.561-.516 6.405-3.228 7.091-6.76l13.572-69.952c3.176-16.423 20.234-26.2 36.042-20.57 12.849 4.577 20.156 18.174 17.55 31.563l-15.055 77.343-6.908 35.488c-10.312 52.975-61.616 87.559-114.59 77.247l-8.564-1.667c-11.756-2.288-19.431-13.674-17.143-25.43l3.206-16.47c8.217-42.219 42.232-74.626 84.799-80.792z" fill="#ffdfd0"/></g><g><path d="m511.475 271.998-15.051 77.346-6.913 35.49c-10.312 52.972-61.615 87.555-114.587 77.243l-10.219-1.988c46.76 1.102 88.884-31.585 98.125-79.046l6.902-35.49 15.061-77.336c2.05-10.518-2.029-21.17-10.096-27.454 5.903-2.338 12.682-2.658 19.234-.319 12.846 4.573 20.15 18.172 17.544 31.554z" fill="#ffcec0"/></g></g></g></g><g><g><path d="m220.709 141.694c-1.977 0-3.955-.755-5.463-2.263l-7.576-7.576c-3.018-3.017-3.018-7.909 0-10.927 3.017-3.017 7.909-3.017 10.927 0l2.113 2.113 2.113-2.113c3.017-3.017 7.909-3.017 10.927 0s3.018 7.909 0 10.927l-7.576 7.576c-1.51 1.509-3.487 2.263-5.465 2.263z" fill="#8dcafc"/></g></g><g><g><path d="m189.945 176.076c-1.977 0-3.955-.755-5.463-2.263l-7.576-7.576c-3.018-3.017-3.018-7.909 0-10.927 3.017-3.017 7.909-3.017 10.927 0l2.113 2.113 2.113-2.113c3.017-3.017 7.909-3.017 10.927 0s3.018 7.909 0 10.927l-7.576 7.576c-1.511 1.508-3.488 2.263-5.465 2.263z" fill="#1c96f9"/></g></g><g><g><path d="m234.572 362.883c-1.977 0-3.955-.755-5.463-2.263l-7.576-7.576c-3.018-3.017-3.018-7.909 0-10.927 3.017-3.017 7.909-3.017 10.927 0l2.113 2.113 2.113-2.113c3.017-3.017 7.909-3.017 10.927 0s3.018 7.909 0 10.927l-7.576 7.576c-1.51 1.509-3.487 2.263-5.465 2.263z" fill="#1c96f9"/></g></g><g><g><path d="m372.518 136.596c-1.977 0-3.955-.755-5.463-2.263l-7.576-7.576c-3.018-3.017-3.018-7.909 0-10.927 3.017-3.017 7.909-3.017 10.927 0l2.113 2.113 2.113-2.113c3.017-3.017 7.909-3.017 10.927 0s3.018 7.909 0 10.927l-7.576 7.576c-1.511 1.509-3.488 2.263-5.465 2.263z" fill="#26d192"/></g></g><g><g><path d="m352.648 348.3c-1.977 0-3.955-.755-5.463-2.263l-7.576-7.576c-3.018-3.017-3.018-7.909 0-10.927 3.017-3.017 7.909-3.017 10.927 0l2.113 2.113 2.113-2.113c3.017-3.017 7.909-3.017 10.927 0s3.018 7.909 0 10.927l-7.576 7.576c-1.51 1.508-3.488 2.263-5.465 2.263z" fill="#72f4c3"/></g></g><g><g><path d="m114.644 304.409c-1.977 0-3.955-.755-5.463-2.263l-7.576-7.576c-3.018-3.017-3.018-7.909 0-10.927 3.017-3.017 7.909-3.017 10.927 0l2.113 2.113 2.113-2.113c3.017-3.017 7.909-3.017 10.927 0s3.018 7.909 0 10.927l-7.576 7.576c-1.51 1.509-3.488 2.263-5.465 2.263z" fill="#26d192"/></g></g></g></g></svg>