<svg height="512pt" viewBox="-4 0 512 512.00101" width="512pt" xmlns="http://www.w3.org/2000/svg"><path d="m283.472656 95.945312c-7.664062 0-13.875-6.214843-13.875-13.875v-47.578124c0-3.714844-3.023437-6.738282-6.738281-6.738282h-133.214844c-3.714843 0-6.738281 3.023438-6.738281 6.738282v47.578124c0 7.660157-6.214844 13.875-13.875 13.875-7.664062 0-13.878906-6.214843-13.878906-13.875v-47.578124c0-19.019532 15.472656-34.492188 34.492187-34.492188h133.214844c19.019531 0 34.492187 15.472656 34.492187 34.492188v47.578124c0 7.660157-6.214843 13.875-13.878906 13.875zm0 0" fill="#c9885b"/><path d="m392.5 83.675781v226.910157c0 5.253906-.765625 10.320312-2.175781 15.097656-6.507813 21.945312-26.824219 37.960937-50.882813 37.960937h-286.382812c-29.304688 0-53.05468775-23.761719-53.05468775-53.058593v-226.910157c0-9.746093 7.89453175-17.640625 17.64062475-17.640625h357.21875c9.742188 0 17.636719 7.894532 17.636719 17.640625zm0 0" fill="#daae91"/><path d="m392.5 83.675781v51.300781c0 14.097657-3.902344 27.285157-10.683594 38.542969-13.085937 21.6875-36.867187 36.191407-64.050781 36.191407h-243.03125c-41.277344 0-74.734375-33.453126-74.734375-74.734376v-51.300781c0-9.746093 7.898438-17.640625 17.644531-17.640625h357.214844c9.746094 0 17.640625 7.894532 17.640625 17.640625zm0 0" fill="#d19a75"/><path d="m390.332031 325.6875c-6.515625 21.933594-26.828125 37.953125-50.890625 37.953125h-286.386718c-29.308594 0-53.054688-23.746094-53.054688-53.058594v-226.902343c0-9.753907 7.90625-17.636719 17.636719-17.636719h18.117187v208.769531c0 29.292969 23.746094 53.054688 53.054688 53.054688h286.382812c5.265625 0 10.351563-.753907 15.140625-2.179688zm0 0" fill="#d19a75"/><path d="m319.480469 246.527344h-23.011719c-4.8125 0-8.707031-3.898438-8.707031-8.707032v-56.769531c0-4.808593 3.894531-8.707031 8.707031-8.707031h23.015625c4.808594 0 8.707031 3.898438 8.707031 8.707031v56.769531c-.003906 4.808594-3.902344 8.707032-8.710937 8.707032zm0 0" fill="#9b5e34"/><path d="m381.8125 173.523438c-13.078125 21.6875-36.863281 36.191406-64.039062 36.191406h-243.03125c-41.277344 0-74.742188-33.460938-74.742188-74.742188v-51.292968c0-9.753907 7.90625-17.636719 17.636719-17.636719h18.117187v38.285156c0 41.277344 33.460938 74.742187 74.742188 74.742187h243.027344c10.015624 0 19.574218-1.972656 28.289062-5.546874zm0 0" fill="#c9885b"/><path d="m328.1875 181.054688v27.933593c-3.398438.476563-6.882812.722657-10.421875.722657h-30.011719v-28.65625c0-4.808594 3.90625-8.714844 8.714844-8.714844h23.003906c4.824219 0 8.714844 3.90625 8.714844 8.714844zm0 0" fill="#b56d3c"/><path d="m96.117188 246.527344h-23.015626c-4.808593 0-8.707031-3.898438-8.707031-8.707032v-56.769531c0-4.808593 3.898438-8.707031 8.707031-8.707031h23.015626c4.808593 0 8.707031 3.898438 8.707031 8.707031v56.769531c0 4.808594-3.898438 8.707032-8.707031 8.707032zm0 0" fill="#9b5e34"/><path d="m104.820312 181.054688v27.933593c-3.398437.476563-6.882812.722657-10.421874.722657h-30.011719v-28.65625c0-4.808594 3.90625-8.714844 8.714843-8.714844h23.007813c4.820313 0 8.710937 3.90625 8.710937 8.714844zm0 0" fill="#b56d3c"/><path d="m239.183594 332.660156v95.425782c0 19.453124 50.835937 35.21875 113.546875 35.21875 62.710937 0 113.546875-15.765626 113.546875-35.21875v-93.785157zm0 0" fill="#766d78"/><path d="m466.226562 429.058594c-1.644531 18.996094-51.832031 34.246094-113.496093 34.246094-62.707031 0-113.546875-15.769532-113.546875-35.214844v-95.429688l29.085937.214844v72.632812c0 19.457032 50.828125 35.226563 113.546875 35.226563 33.507813 0 63.628906-4.503906 84.410156-11.675781zm0 0" fill="#655e67"/><path d="m348.191406 252.773438-140.320312 61.875c-7.976563 3.515624-7.976563 13.992187 0 17.507812l140.320312 61.875c2.871094 1.265625 6.207032 1.265625 9.074219 0l140.320313-61.875c7.976562-3.519531 7.976562-13.992188 0-17.507812l-140.320313-61.875c-2.867187-1.265626-6.203125-1.265626-9.074219 0zm0 0" fill="#544f56"/><path d="m497.589844 332.160156-140.324219 61.871094c-2.871094 1.265625-6.199219 1.265625-9.070313 0l-140.328124-61.871094c-7.976563-3.523437-7.976563-13.992187 0-17.515625l23.398437-10.316406 138.753906 61.1875c2.871094 1.253906 6.199219 1.253906 9.070313 0l116.929687-51.566406 1.570313.695312c7.976562 3.523438 7.976562 13.992188 0 17.515625zm0 0" fill="#444145"/><path d="m352.910156 315.707031c-1.765625-3.84375-6.316406-5.523437-10.160156-3.753906l-81.425781 37.707031c-2.714844 1.25-4.457031 3.96875-4.457031 6.957032v108.820312l-25.832032 34.292969c-2.542968 3.382812-1.867187 8.183593 1.511719 10.726562 3.378906 2.546875 8.179687 1.871094 10.726563-1.507812l13.59375-18.050781v13.441406c0 4.230468 3.429687 7.660156 7.660156 7.660156 4.230468 0 7.660156-3.429688 7.660156-7.660156v-13.441406l13.597656 18.050781c2.542969 3.378906 7.347656 4.050781 10.726563 1.507812 3.378906-2.542969 4.054687-7.34375 1.507812-10.726562l-25.832031-34.292969v-103.914062l76.96875-35.65625c3.84375-1.769532 5.523438-6.316407 3.753906-10.160157zm0 0" fill="#ffe046"/><path d="m374.558594 317.246094c0-7.378906-9.773438-13.363282-21.828125-13.363282-12.054688 0-21.828125 5.984376-21.828125 13.363282s9.773437 13.363281 21.828125 13.363281c12.054687 0 21.828125-5.984375 21.828125-13.363281zm0 0" fill="#eec707"/></svg>