<svg id="Layer_1" enable-background="new 0 0 512 512" height="512" viewBox="0 0 512 512" width="512" xmlns="http://www.w3.org/2000/svg"><g><g fill="#46637f"><path d="m60 469.681h-30v27.319c0 8.284 6.716 15 15 15 8.284 0 15-6.716 15-15z"/><path d="m270 469.681h-30v27.319c0 8.284 6.716 15 15 15 8.284 0 15-6.716 15-15z"/><path d="m484.46 469.681h-30v27.319c0 8.284 6.716 15 15 15 8.284 0 15-6.716 15-15z"/></g><path d="m393.269 182.163h-116.452c-4.143 0-7.5 3.358-7.5 7.5s3.357 7.5 7.5 7.5h116.451c4.884 0 8.857 3.974 8.857 8.858v66.033c0 4.142 3.357 7.5 7.5 7.5s7.5-3.358 7.5-7.5v-66.033c.001-13.155-10.701-23.858-23.856-23.858z" fill="#46637f"/><path d="m512 392.78-20 19.88 20 19.89v19.59c0 15.21-12.33 27.54-27.54 27.54h-212v-230.31h212c15.21 0 27.54 12.33 27.54 27.53z" fill="#ff7680"/><path d="m512 392.78-20 19.88v-135.76c0-15.2-12.33-27.53-27.54-27.53h20c15.21 0 27.54 12.33 27.54 27.53z" fill="#f44d90"/><path d="m492 429.64v-16.98l20 19.89v19.59c0 15.21-12.33 27.54-27.54 27.54h-212v-22.5h192c15.21 0 27.54-12.33 27.54-27.54z" fill="#f44d90"/><path d="m417.13 249.37v15.75l14.06 14.33c.92.93 1.44 2.19 1.44 3.5v46c0 2.76-2.24 5-5 5h-36c-2.77 0-5-2.24-5-5v-46c0-1.31.51-2.57 1.43-3.5l14.07-14.33v-15.75z" fill="#d8e5ef"/><path d="m272.46 392.78h239.54v39.77h-239.54z" fill="#46637f"/><path d="m512 392.78v39.77h-20.15c.1-.95.15-1.93.15-2.91v-36.86z" fill="#234063"/><path d="m225.611 0h-151.222c-4.142 0-7.5 3.358-7.5 7.5s3.358 7.5 7.5 7.5h12.5v97.181h15v-97.181h96.221v97.181h15v-97.181h12.5c4.142 0 7.5-3.358 7.5-7.5s-3.357-7.5-7.499-7.5z" fill="#46637f"/><path d="m300 119.72v332.42c0 15.21-12.33 27.54-27.54 27.54h-244.92c-13.49 0-24.71-9.69-27.07-22.5-.31-1.63-.47-3.32-.47-5.04v-332.42c0-15.21 12.33-27.54 27.54-27.54h244.92c15.21 0 27.54 12.33 27.54 27.54z" fill="#ffff4d"/><path d="m300 119.72v332.42c0 15.21-12.33 27.54-27.54 27.54h-244.92c-13.49 0-24.71-9.69-27.07-22.5h249.49l27.54-27.54v-309.92c0-15.21-12.33-27.54-27.54-27.54h22.5c15.21 0 27.54 12.33 27.54 27.54z" fill="#ffe150"/><path d="m277.5 275.18v174.5c0 4.14-3.36 7.5-7.5 7.5h-240c-4.14 0-7.5-3.36-7.5-7.5v-174.5c0-4.14 3.36-7.5 7.5-7.5h240c4.14 0 7.5 3.36 7.5 7.5z" fill="#f7904b"/><path d="m277.5 275.18v174.5c0 4.14-3.36 7.5-7.5 7.5h-240c-4.14 0-7.5-3.36-7.5-7.5v-12.5h213.35c12.09 0 21.88-9.8 21.88-21.88v-140.12c0-4.14-3.35-7.5-7.5-7.5h19.77c4.14 0 7.5 3.36 7.5 7.5z" fill="#f25d40"/><g fill="#46637f"><path d="m240 297.315h-180c-4.142 0-7.5 3.358-7.5 7.5s3.358 7.5 7.5 7.5h148.5v24.361c0 4.142 3.358 7.5 7.5 7.5s7.5-3.358 7.5-7.5v-24.361h16.5c4.142 0 7.5-3.358 7.5-7.5s-3.358-7.5-7.5-7.5z"/><path d="m200 172.044v20.13c0 2.726-2.21 4.935-4.935 4.935h-90.13c-2.726 0-4.935-2.21-4.935-4.935v-20.13c0-2.726 2.21-4.935 4.935-4.935h90.13c2.725 0 4.935 2.21 4.935 4.935z"/></g></g></svg>